{
	"patcher" : 	{
		"fileversion" : 1,
		"appversion" : 		{
			"major" : 6,
			"minor" : 1,
			"revision" : 3,
			"architecture" : "x86"
		}
,
		"rect" : [ 0.0, 44.0, 1476.0, 902.0 ],
		"bglocked" : 0,
		"openinpresentation" : 1,
		"default_fontsize" : 9.0,
		"default_fontface" : 0,
		"default_fontname" : "Monaco",
		"gridonopen" : 0,
		"gridsize" : [ 15.0, 15.0 ],
		"gridsnaponopen" : 0,
		"statusbarvisible" : 2,
		"toolbarvisible" : 1,
		"boxanimatetime" : 200,
		"imprint" : 0,
		"enablehscroll" : 1,
		"enablevscroll" : 1,
		"devicewidth" : 0.0,
		"description" : "",
		"digest" : "",
		"tags" : "",
		"boxes" : [ 			{
				"box" : 				{
					"fontname" : "Monaco",
					"fontsize" : 9.0,
					"id" : "obj-1",
					"maxclass" : "newobj",
					"numinlets" : 0,
					"numoutlets" : 1,
					"outlettype" : [ "bang" ],
					"patcher" : 					{
						"fileversion" : 1,
						"appversion" : 						{
							"major" : 6,
							"minor" : 1,
							"revision" : 3,
							"architecture" : "x86"
						}
,
						"rect" : [ 25.0, 69.0, 640.0, 480.0 ],
						"bglocked" : 0,
						"openinpresentation" : 0,
						"default_fontsize" : 9.0,
						"default_fontface" : 0,
						"default_fontname" : "Monaco",
						"gridonopen" : 0,
						"gridsize" : [ 15.0, 15.0 ],
						"gridsnaponopen" : 0,
						"statusbarvisible" : 2,
						"toolbarvisible" : 1,
						"boxanimatetime" : 200,
						"imprint" : 0,
						"enablehscroll" : 1,
						"enablevscroll" : 1,
						"devicewidth" : 0.0,
						"description" : "",
						"digest" : "",
						"tags" : "",
						"boxes" : [ 							{
								"box" : 								{
									"fontname" : "Monaco",
									"fontsize" : 9.0,
									"id" : "obj-5",
									"maxclass" : "newobj",
									"numinlets" : 2,
									"numoutlets" : 1,
									"outlettype" : [ "bang" ],
									"patching_rect" : [ 50.0, 151.0, 59.0, 18.0 ],
									"text" : "delay 100"
								}

							}
, 							{
								"box" : 								{
									"fontname" : "Monaco",
									"fontsize" : 9.0,
									"id" : "obj-1",
									"maxclass" : "newobj",
									"numinlets" : 1,
									"numoutlets" : 1,
									"outlettype" : [ "bang" ],
									"patching_rect" : [ 50.0, 123.0, 54.0, 18.0 ],
									"text" : "loadbang"
								}

							}
, 							{
								"box" : 								{
									"id" : "obj-36",
									"maxclass" : "toggle",
									"numinlets" : 1,
									"numoutlets" : 1,
									"outlettype" : [ "int" ],
									"parameter_enable" : 0,
									"patching_rect" : [ 50.0, 188.0, 20.0, 20.0 ]
								}

							}
, 							{
								"box" : 								{
									"fontname" : "Monaco",
									"fontsize" : 9.0,
									"id" : "obj-34",
									"maxclass" : "newobj",
									"numinlets" : 2,
									"numoutlets" : 1,
									"outlettype" : [ "bang" ],
									"patching_rect" : [ 50.0, 221.0, 59.0, 18.0 ],
									"text" : "qmetro 16"
								}

							}
, 							{
								"box" : 								{
									"comment" : "",
									"id" : "obj-6",
									"maxclass" : "outlet",
									"numinlets" : 1,
									"numoutlets" : 0,
									"patching_rect" : [ 50.0, 257.0, 25.0, 25.0 ]
								}

							}
 ],
						"lines" : [ 							{
								"patchline" : 								{
									"destination" : [ "obj-5", 0 ],
									"disabled" : 0,
									"hidden" : 0,
									"source" : [ "obj-1", 0 ]
								}

							}
, 							{
								"patchline" : 								{
									"destination" : [ "obj-6", 0 ],
									"disabled" : 0,
									"hidden" : 0,
									"source" : [ "obj-34", 0 ]
								}

							}
, 							{
								"patchline" : 								{
									"destination" : [ "obj-34", 0 ],
									"disabled" : 0,
									"hidden" : 0,
									"source" : [ "obj-36", 0 ]
								}

							}
, 							{
								"patchline" : 								{
									"destination" : [ "obj-36", 0 ],
									"disabled" : 0,
									"hidden" : 0,
									"source" : [ "obj-5", 0 ]
								}

							}
 ]
					}
,
					"patching_rect" : [ 68.0, 56.0, 48.0, 18.0 ],
					"saved_object_attributes" : 					{
						"default_fontface" : 0,
						"default_fontname" : "Monaco",
						"default_fontsize" : 9.0,
						"description" : "",
						"digest" : "",
						"fontface" : 0,
						"fontname" : "Monaco",
						"fontsize" : 9.0,
						"globalpatchername" : "",
						"tags" : ""
					}
,
					"text" : "p clock"
				}

			}
, 			{
				"box" : 				{
					"fontname" : "Monaco",
					"fontsize" : 9.0,
					"id" : "obj-10",
					"maxclass" : "newobj",
					"numinlets" : 1,
					"numoutlets" : 1,
					"outlettype" : [ "int" ],
					"patching_rect" : [ 214.0, 121.0, 43.0, 18.0 ],
					"text" : "t 1000"
				}

			}
, 			{
				"box" : 				{
					"fontname" : "Monaco",
					"fontsize" : 9.0,
					"id" : "obj-24",
					"maxclass" : "newobj",
					"numinlets" : 6,
					"numoutlets" : 1,
					"outlettype" : [ "" ],
					"patching_rect" : [ 261.0, 169.0, 151.0, 18.0 ],
					"text" : "scale 0. 1000. 0. 1. 1.005"
				}

			}
, 			{
				"box" : 				{
					"fontname" : "Monaco",
					"fontsize" : 9.0,
					"id" : "obj-8",
					"maxclass" : "newobj",
					"numinlets" : 1,
					"numoutlets" : 0,
					"patching_rect" : [ 167.0, 180.0, 38.0, 18.0 ],
					"text" : "s dim"
				}

			}
, 			{
				"box" : 				{
					"fontname" : "Monaco",
					"fontsize" : 9.0,
					"id" : "obj-9",
					"maxclass" : "message",
					"numinlets" : 2,
					"numoutlets" : 1,
					"outlettype" : [ "" ],
					"patching_rect" : [ 87.0, 180.0, 65.0, 16.0 ],
					"text" : "size $1 $2"
				}

			}
, 			{
				"box" : 				{
					"fontname" : "Monaco",
					"fontsize" : 9.0,
					"id" : "obj-12",
					"maxclass" : "newobj",
					"numinlets" : 2,
					"numoutlets" : 2,
					"outlettype" : [ "", "" ],
					"patching_rect" : [ 87.0, 155.0, 59.0, 18.0 ],
					"text" : "route dim"
				}

			}
, 			{
				"box" : 				{
					"fontname" : "Monaco",
					"fontsize" : 9.0,
					"id" : "obj-11",
					"maxclass" : "newobj",
					"numinlets" : 1,
					"numoutlets" : 1,
					"outlettype" : [ "" ],
					"patching_rect" : [ 87.0, 131.0, 86.0, 18.0 ],
					"text" : "jit.matrixinfo"
				}

			}
, 			{
				"box" : 				{
					"fontname" : "Avenir Next Demi Bold",
					"fontsize" : 14.0,
					"frgb" : 0.0,
					"id" : "obj-21",
					"maxclass" : "comment",
					"numinlets" : 1,
					"numoutlets" : 0,
					"patching_rect" : [ 143.0, 7.0, 194.0, 26.0 ],
					"presentation" : 1,
					"presentation_rect" : [ 165.0, 10.0, 194.0, 26.0 ],
					"text" : "Resolution",
					"textjustification" : 1
				}

			}
, 			{
				"box" : 				{
					"fontname" : "Monaco",
					"fontsize" : 9.0,
					"id" : "obj-19",
					"maxclass" : "newobj",
					"numinlets" : 1,
					"numoutlets" : 2,
					"outlettype" : [ "jit_matrix", "" ],
					"patching_rect" : [ 68.0, 211.0, 124.0, 18.0 ],
					"text" : "jit.matrix 4 char 0 0"
				}

			}
, 			{
				"box" : 				{
					"floatoutput" : 1,
					"id" : "obj-16",
					"maxclass" : "slider",
					"numinlets" : 1,
					"numoutlets" : 1,
					"orientation" : 1,
					"outlettype" : [ "" ],
					"parameter_enable" : 0,
					"patching_rect" : [ 261.0, 139.0, 99.0, 19.0 ],
					"presentation" : 1,
					"presentation_rect" : [ 165.0, 36.0, 194.0, 38.0 ],
					"size" : 1000.0
				}

			}
, 			{
				"box" : 				{
					"fontname" : "Monaco",
					"fontsize" : 9.0,
					"id" : "obj-15",
					"maxclass" : "newobj",
					"numinlets" : 0,
					"numoutlets" : 1,
					"outlettype" : [ "" ],
					"patching_rect" : [ 353.799988, 56.0, 38.0, 18.0 ],
					"text" : "r dim"
				}

			}
, 			{
				"box" : 				{
					"fontname" : "Monaco",
					"fontsize" : 9.0,
					"id" : "obj-69",
					"maxclass" : "message",
					"numinlets" : 2,
					"numoutlets" : 1,
					"outlettype" : [ "" ],
					"patching_rect" : [ 224.0, 256.0, 150.0, 16.0 ],
					"text" : "dim 0. 0."
				}

			}
, 			{
				"box" : 				{
					"fontname" : "Monaco",
					"fontsize" : 9.0,
					"id" : "obj-63",
					"maxclass" : "newobj",
					"numinlets" : 3,
					"numoutlets" : 1,
					"outlettype" : [ "" ],
					"patching_rect" : [ 230.0, 226.0, 81.0, 18.0 ],
					"text" : "pak dim 0. 0."
				}

			}
, 			{
				"box" : 				{
					"fontname" : "Monaco",
					"fontsize" : 9.0,
					"id" : "obj-62",
					"maxclass" : "newobj",
					"numinlets" : 2,
					"numoutlets" : 1,
					"outlettype" : [ "float" ],
					"patching_rect" : [ 292.0, 197.0, 32.5, 18.0 ],
					"text" : "* 1."
				}

			}
, 			{
				"box" : 				{
					"fontname" : "Monaco",
					"fontsize" : 9.0,
					"id" : "obj-61",
					"maxclass" : "flonum",
					"numinlets" : 1,
					"numoutlets" : 2,
					"outlettype" : [ "float", "bang" ],
					"parameter_enable" : 0,
					"patching_rect" : [ 402.5, 140.0, 66.0, 18.0 ]
				}

			}
, 			{
				"box" : 				{
					"fontname" : "Monaco",
					"fontsize" : 9.0,
					"id" : "obj-59",
					"maxclass" : "newobj",
					"numinlets" : 2,
					"numoutlets" : 1,
					"outlettype" : [ "float" ],
					"patching_rect" : [ 376.799988, 115.0, 32.5, 18.0 ],
					"text" : "/ 1."
				}

			}
, 			{
				"box" : 				{
					"fontname" : "Monaco",
					"fontsize" : 9.0,
					"id" : "obj-58",
					"maxclass" : "newobj",
					"numinlets" : 1,
					"numoutlets" : 3,
					"outlettype" : [ "", "", "" ],
					"patching_rect" : [ 353.799988, 83.0, 65.0, 18.0 ],
					"text" : "unjoin 0 0"
				}

			}
, 			{
				"box" : 				{
					"id" : "obj-4",
					"maxclass" : "jit.pwindow",
					"numinlets" : 1,
					"numoutlets" : 2,
					"outlettype" : [ "", "" ],
					"patching_rect" : [ 68.0, 289.0, 320.0, 240.0 ],
					"presentation" : 1,
					"presentation_rect" : [ 9.0, 83.0, 320.0, 240.0 ]
				}

			}
, 			{
				"box" : 				{
					"fontname" : "Avenir Next Demi Bold",
					"fontsize" : 14.0,
					"id" : "obj-2",
					"maxclass" : "textbutton",
					"numinlets" : 1,
					"numoutlets" : 3,
					"outlettype" : [ "", "", "int" ],
					"parameter_enable" : 0,
					"patching_rect" : [ 24.0, 7.0, 100.0, 20.0 ],
					"presentation" : 1,
					"presentation_rect" : [ 9.0, 10.0, 144.0, 64.0 ],
					"text" : "Open Movie"
				}

			}
, 			{
				"box" : 				{
					"fontname" : "Monaco",
					"fontsize" : 9.0,
					"id" : "obj-38",
					"maxclass" : "message",
					"numinlets" : 2,
					"numoutlets" : 1,
					"outlettype" : [ "" ],
					"patching_rect" : [ 24.0, 56.0, 33.0, 16.0 ],
					"text" : "read"
				}

			}
, 			{
				"box" : 				{
					"fontname" : "Inconsolata",
					"fontsize" : 11.0,
					"id" : "obj-3",
					"maxclass" : "newobj",
					"numinlets" : 1,
					"numoutlets" : 2,
					"outlettype" : [ "jit_matrix", "" ],
					"patching_rect" : [ 68.0, 98.0, 165.0, 18.0 ],
					"text" : "jit.qt.movie @vol 0 @adapt 1"
				}

			}
 ],
		"lines" : [ 			{
				"patchline" : 				{
					"destination" : [ "obj-3", 0 ],
					"disabled" : 0,
					"hidden" : 0,
					"source" : [ "obj-1", 0 ]
				}

			}
, 			{
				"patchline" : 				{
					"destination" : [ "obj-16", 0 ],
					"disabled" : 0,
					"hidden" : 0,
					"source" : [ "obj-10", 0 ]
				}

			}
, 			{
				"patchline" : 				{
					"destination" : [ "obj-12", 0 ],
					"disabled" : 0,
					"hidden" : 0,
					"source" : [ "obj-11", 0 ]
				}

			}
, 			{
				"patchline" : 				{
					"destination" : [ "obj-8", 0 ],
					"disabled" : 0,
					"hidden" : 0,
					"source" : [ "obj-12", 0 ]
				}

			}
, 			{
				"patchline" : 				{
					"destination" : [ "obj-9", 0 ],
					"disabled" : 0,
					"hidden" : 0,
					"source" : [ "obj-12", 0 ]
				}

			}
, 			{
				"patchline" : 				{
					"destination" : [ "obj-58", 0 ],
					"disabled" : 0,
					"hidden" : 0,
					"source" : [ "obj-15", 0 ]
				}

			}
, 			{
				"patchline" : 				{
					"destination" : [ "obj-24", 0 ],
					"disabled" : 0,
					"hidden" : 0,
					"source" : [ "obj-16", 0 ]
				}

			}
, 			{
				"patchline" : 				{
					"destination" : [ "obj-4", 0 ],
					"disabled" : 0,
					"hidden" : 0,
					"source" : [ "obj-19", 0 ]
				}

			}
, 			{
				"patchline" : 				{
					"destination" : [ "obj-38", 0 ],
					"disabled" : 0,
					"hidden" : 0,
					"source" : [ "obj-2", 0 ]
				}

			}
, 			{
				"patchline" : 				{
					"destination" : [ "obj-62", 0 ],
					"disabled" : 0,
					"hidden" : 0,
					"source" : [ "obj-24", 0 ]
				}

			}
, 			{
				"patchline" : 				{
					"destination" : [ "obj-63", 1 ],
					"disabled" : 0,
					"hidden" : 0,
					"source" : [ "obj-24", 0 ]
				}

			}
, 			{
				"patchline" : 				{
					"destination" : [ "obj-10", 0 ],
					"disabled" : 0,
					"hidden" : 0,
					"source" : [ "obj-3", 1 ]
				}

			}
, 			{
				"patchline" : 				{
					"destination" : [ "obj-11", 0 ],
					"disabled" : 0,
					"hidden" : 0,
					"source" : [ "obj-3", 0 ]
				}

			}
, 			{
				"patchline" : 				{
					"destination" : [ "obj-19", 0 ],
					"disabled" : 0,
					"hidden" : 0,
					"source" : [ "obj-3", 0 ]
				}

			}
, 			{
				"patchline" : 				{
					"destination" : [ "obj-3", 0 ],
					"disabled" : 0,
					"hidden" : 0,
					"source" : [ "obj-38", 0 ]
				}

			}
, 			{
				"patchline" : 				{
					"destination" : [ "obj-24", 4 ],
					"disabled" : 0,
					"hidden" : 0,
					"midpoints" : [ 363.299988, 163.0, 376.100006, 163.0 ],
					"source" : [ "obj-58", 0 ]
				}

			}
, 			{
				"patchline" : 				{
					"destination" : [ "obj-59", 0 ],
					"disabled" : 0,
					"hidden" : 0,
					"source" : [ "obj-58", 1 ]
				}

			}
, 			{
				"patchline" : 				{
					"destination" : [ "obj-59", 1 ],
					"disabled" : 0,
					"hidden" : 0,
					"source" : [ "obj-58", 0 ]
				}

			}
, 			{
				"patchline" : 				{
					"destination" : [ "obj-61", 0 ],
					"disabled" : 0,
					"hidden" : 0,
					"source" : [ "obj-59", 0 ]
				}

			}
, 			{
				"patchline" : 				{
					"destination" : [ "obj-62", 1 ],
					"disabled" : 0,
					"hidden" : 0,
					"midpoints" : [ 386.299988, 192.0, 315.0, 192.0 ],
					"source" : [ "obj-59", 0 ]
				}

			}
, 			{
				"patchline" : 				{
					"destination" : [ "obj-63", 2 ],
					"disabled" : 0,
					"hidden" : 0,
					"source" : [ "obj-62", 0 ]
				}

			}
, 			{
				"patchline" : 				{
					"destination" : [ "obj-19", 0 ],
					"disabled" : 0,
					"hidden" : 0,
					"source" : [ "obj-63", 0 ]
				}

			}
, 			{
				"patchline" : 				{
					"destination" : [ "obj-69", 1 ],
					"disabled" : 0,
					"hidden" : 0,
					"source" : [ "obj-63", 0 ]
				}

			}
, 			{
				"patchline" : 				{
					"destination" : [ "obj-4", 0 ],
					"disabled" : 0,
					"hidden" : 0,
					"source" : [ "obj-9", 0 ]
				}

			}
 ],
		"dependency_cache" : [  ]
	}

}
